HIERARCHY
ROOT joint_Root
{
	OFFSET 0.0 0.0 0.0
	CHANNELS 6 Xposition Yposition Zposition Zrotation Xrotation Yrotation 
	JOINT Hips
	{
		OFFSET -17.1583 93.1646 452.98
		CHANNELS 6 Xposition Yposition Zposition Zrotation Xrotation Yrotation 
		JOINT Spine
		{
			OFFSET 15.7357 0.0 0.0
			CHANNELS 6 Xposition Yposition Zposition Zrotation Xrotation Yrotation 
			JOINT Chest
			{
				OFFSET 8.98455 -0.406207 0.0
				CHANNELS 6 Xposition Yposition Zposition Zrotation Xrotation Yrotation 
				JOINT Neck
				{
					OFFSET 16.3773 0.0 0.0
					CHANNELS 6 Xposition Yposition Zposition Zrotation Xrotation Yrotation 
					JOINT Head
					{
						OFFSET 6.45672 0.0 0.0
						CHANNELS 6 Xposition Yposition Zposition Zrotation Xrotation Yrotation 
						End Site
						{
							OFFSET 0.0 0.0 0.0
						}
					}
				}
				JOINT Shoulder_L
				{
					OFFSET 12.9942 -0.242716 4.98039
					CHANNELS 6 Xposition Yposition Zposition Zrotation Xrotation Yrotation 
					JOINT UpperArm_L
					{
						OFFSET 5.34809 0.0 0.0
						CHANNELS 6 Xposition Yposition Zposition Zrotation Xrotation Yrotation 
						JOINT LowerArm_L
						{
							OFFSET 24.3286 1.87007e-05 0.0
							CHANNELS 6 Xposition Yposition Zposition Zrotation Xrotation Yrotation 
							JOINT Hand_L
							{
								OFFSET 22.2916 0.0 0.0
								CHANNELS 6 Xposition Yposition Zposition Zrotation Xrotation Yrotation 
								End Site
								{
									OFFSET 0.0 0.0 0.0
								}
							}
						}
					}
				}
				JOINT Shoulder_R
				{
					OFFSET 12.9945 -0.242716 -4.98039
					CHANNELS 6 Xposition Yposition Zposition Zrotation Xrotation Yrotation 
					JOINT UpperArm_R
					{
						OFFSET -5.34813 0.0 0.0
						CHANNELS 6 Xposition Yposition Zposition Zrotation Xrotation Yrotation 
						JOINT LowerArm_R
						{
							OFFSET -24.3289 0.000322201 0.0
							CHANNELS 6 Xposition Yposition Zposition Zrotation Xrotation Yrotation 
							JOINT Hand_R
							{
								OFFSET -22.2915 -0.000108084 0.0
								CHANNELS 6 Xposition Yposition Zposition Zrotation Xrotation Yrotation 
								End Site
								{
									OFFSET 0.0 0.0 0.0
								}
							}
						}
					}
				}
			}
		}
		JOINT UpperLeg_L
		{
			OFFSET -2.19248 -6.46944 0.0
			CHANNELS 6 Xposition Yposition Zposition Zrotation Xrotation Yrotation 
			JOINT LowerLeg_L
			{
				OFFSET 39.0811 0.0 -1.23785e-05
				CHANNELS 6 Xposition Yposition Zposition Zrotation Xrotation Yrotation 
				JOINT Foot_L
				{
					OFFSET 40.9854 0.0 -1.26872e-05
					CHANNELS 6 Xposition Yposition Zposition Zrotation Xrotation Yrotation 
					JOINT Toes_L
					{
						OFFSET 11.7543 0.0 0.0
						CHANNELS 6 Xposition Yposition Zposition Zrotation Xrotation Yrotation 
						End Site
						{
							OFFSET 0.0 0.0 0.0
						}
					}
				}
			}
		}
		JOINT UpperLeg_R
		{
			OFFSET -2.19251 6.46944 0.0
			CHANNELS 6 Xposition Yposition Zposition Zrotation Xrotation Yrotation 
			JOINT LowerLeg_R
			{
				OFFSET -39.0811 -0.00228153 -0.0401928
				CHANNELS 6 Xposition Yposition Zposition Zrotation Xrotation Yrotation 
				JOINT Foot_R
				{
					OFFSET -40.9854 0.0 0.0
					CHANNELS 6 Xposition Yposition Zposition Zrotation Xrotation Yrotation 
					JOINT Toes_R
					{
						OFFSET -11.7543 0.0 0.0
						CHANNELS 6 Xposition Yposition Zposition Zrotation Xrotation Yrotation 
						End Site
						{
							OFFSET 0.0 0.0 0.0
						}
					}
				}
			}
		}
	}
}
MOTION
Frames:	8
Frame Time:	0.0333333
0.000000 0.000000 0.000000 0.000000 0.000000 -0.000000 0.833302 93.372200 -0.619401 87.902800 -0.811503 -0.148895 15.735700 0.000005 -0.000001 116.139000 86.583000 -116.370000 8.984550 -0.406207 -0.000000 -1.625490 3.028910 -0.418475 16.377300 -0.000001 -0.000001 -0.638472 1.287320 0.979308 6.456720 -0.000001 -0.000000 -0.041682 0.455149 6.548530 12.994200 -0.242716 4.980390 -92.363300 7.541380 -72.543800 5.348090 -0.000007 -0.000001 -69.695700 13.760100 -8.994180 24.328600 0.000019 0.000005 5.417860 26.147200 -12.145600 22.291600 -0.000001 0.000005 -7.199000 5.136920 4.254380 12.994500 -0.242716 -4.980390 88.438500 5.906760 -75.163500 -5.348130 -0.000001 -0.000004 -71.895400 29.160000 -4.244690 -24.328900 0.000322 -0.000009 0.100849 0.369270 -15.426700 -22.291500 -0.000108 -0.000004 3.337990 5.286850 0.438167 -2.192480 -6.469440 -0.000000 -174.470000 -4.157090 -1.568920 39.081100 -0.000007 -0.000012 0.023264 -0.091992 14.192500 40.985400 -0.000006 -0.000013 -0.500477 10.396700 -68.267700 11.754300 -0.000000 0.000003 -0.000337 0.173122 -9.554790 -2.192510 6.469440 -0.000001 176.259000 8.163500 -178.483000 -39.081100 -0.002282 -0.040193 0.003301 0.000311 7.696510 -40.985400 0.000008 0.000006 -10.127600 8.614520 -63.247500 -11.754300 -0.000006 -0.000006 -0.010900 0.277912 -5.280690
0.000000 0.000000 0.000000 0.000000 0.000000 -0.000000 0.747025 93.407900 -0.590755 87.926500 -0.821220 -0.423210 15.735700 0.000005 -0.000001 118.524000 86.741100 -118.688000 8.984550 -0.406207 -0.000000 -2.035950 3.125610 -0.273266 16.377300 -0.000001 -0.000001 -0.737487 1.185050 1.343920 6.456720 -0.000001 -0.000000 -0.457152 0.258240 7.938530 12.994200 -0.242716 4.980390 -92.341000 7.277770 -72.114300 5.348090 -0.000007 -0.000001 -70.274400 0.616311 -11.485700 24.328600 0.000019 0.000005 2.320640 24.625400 -5.554700 22.291600 -0.000001 0.000005 -8.059950 5.034210 6.583410 12.994500 -0.242716 -4.980390 88.405100 6.009890 -75.107900 -5.348130 -0.000001 -0.000004 -71.996700 27.936600 -4.053320 -24.328900 0.000322 -0.000009 0.082602 0.325271 -14.421900 -22.291500 -0.000108 -0.000004 3.537510 5.290690 0.331851 -2.192480 -6.469440 -0.000000 -174.417000 -4.569310 -1.560310 39.081100 -0.000007 -0.000012 0.018621 -0.076464 13.686800 40.985400 -0.000006 -0.000013 -0.565946 10.731800 -68.094900 11.754300 -0.000000 0.000003 -0.000328 0.172979 -9.560560 -2.192510 6.469440 -0.000001 176.311000 8.064020 -178.463000 -39.081100 -0.002282 -0.040193 0.004106 -0.006111 7.111470 -40.985400 0.000008 0.000006 -10.395600 8.523040 -62.894300 -11.754300 -0.000006 -0.000006 -0.010897 0.277890 -5.281590
0.000000 0.000000 0.000000 0.000000 0.000000 -0.000000 0.640909 93.472000 -0.613232 87.984600 -0.710921 -1.094850 15.735700 0.000005 -0.000001 120.640000 87.153500 -120.707000 8.984550 -0.406207 -0.000000 -2.867790 2.906430 -0.061140 16.377300 -0.000001 -0.000001 -1.215560 1.177330 1.347550 6.456720 -0.000001 -0.000000 0.030092 0.314305 9.655070 12.994200 -0.242716 4.980390 -92.254700 6.865430 -71.769700 5.348090 -0.000007 -0.000001 -69.263400 -11.128200 -13.691100 24.328600 0.000019 0.000005 0.371708 25.361200 -0.867643 22.291600 -0.000001 0.000005 -10.961500 4.880820 9.758480 12.994500 -0.242716 -4.980390 88.419200 5.991930 -75.191900 -5.348130 -0.000001 -0.000004 -72.257000 26.642700 -3.623310 -24.328900 0.000322 -0.000009 -0.054026 -0.224822 -13.260400 -22.291500 -0.000108 -0.000004 3.765210 5.288260 0.399300 -2.192480 -6.469440 -0.000000 -174.398000 -5.071920 -1.845520 39.081100 -0.000007 -0.000012 0.014890 -0.065176 12.869600 40.985400 -0.000006 -0.000013 -0.666238 11.316000 -67.847800 11.754300 -0.000000 0.000003 -0.000464 0.175096 -9.474590 -2.192510 6.469440 -0.000001 176.429000 8.019130 -178.626000 -39.081100 -0.002282 -0.040193 0.005619 -0.021454 6.049050 -40.985400 0.000008 0.000006 -10.564500 8.222120 -62.362700 -11.754300 -0.000006 -0.000006 -0.010925 0.278088 -5.273450
0.000000 0.000000 0.000000 0.000000 0.000000 -0.000000 0.510375 93.547900 -0.604812 88.038300 -0.637215 -1.887560 15.735700 0.000005 -0.000001 121.038000 87.661400 -120.917000 8.984550 -0.406207 -0.000000 -3.762630 2.397970 0.320760 16.377300 -0.000001 -0.000001 -2.048470 1.363410 1.208530 6.456720 -0.000001 -0.000000 0.756247 0.696972 11.116000 12.994200 -0.242716 4.980390 -92.067500 6.189800 -71.488500 5.348090 -0.000007 -0.000001 -65.583800 -17.509500 -14.546100 24.328600 0.000019 0.000005 0.000051 29.161200 -0.000003 22.291600 -0.000001 0.000005 -16.884100 4.803020 11.260300 12.994500 -0.242716 -4.980390 88.534200 5.549310 -75.178300 -5.348130 -0.000001 -0.000004 -72.577600 25.512100 -3.326630 -24.328900 0.000322 -0.000009 -0.154623 -0.706842 -12.258800 -22.291500 -0.000108 -0.000004 3.656680 5.285430 0.477117 -2.192480 -6.469440 -0.000000 -174.387000 -5.623890 -2.083630 39.081100 -0.000007 -0.000012 0.014033 -0.067212 11.793700 40.985400 -0.000006 -0.000013 -0.816132 11.877300 -67.563500 11.754300 -0.000000 0.000003 -0.000604 0.177231 -9.387830 -2.192510 6.469440 -0.000001 176.610000 7.760860 -179.044000 -39.081100 -0.002282 -0.040193 0.006615 -0.035427 5.271480 -40.985400 0.000008 0.000006 -10.563900 7.799420 -62.000600 -11.754300 -0.000006 -0.000006 -0.010940 0.278202 -5.268810
0.000000 0.000000 0.000000 0.000000 0.000000 -0.000000 0.351205 93.626700 -0.646235 88.009100 -0.809090 -2.744010 15.735700 0.000005 -0.000001 120.784000 88.120700 -120.354000 8.984550 -0.406207 -0.000000 -4.545200 1.875840 0.935434 16.377300 -0.000001 -0.000001 -2.937760 1.710630 1.014150 6.456720 -0.000001 -0.000000 0.945929 1.240250 12.192200 12.994200 -0.242716 4.980390 -91.800000 5.188280 -70.836900 5.348090 -0.000007 -0.000001 -60.975400 -22.882900 -14.700300 24.328600 0.000019 0.000005 0.000053 30.554700 -0.000003 22.291600 -0.000001 0.000005 -18.824600 4.707690 13.019000 12.994500 -0.242716 -4.980390 88.713700 4.837710 -75.091300 -5.348130 -0.000001 -0.000004 -72.750100 23.427800 -3.055160 -24.328900 0.000322 -0.000009 -0.179387 -0.849773 -11.853200 -22.291500 -0.000108 -0.000004 3.429250 5.280750 0.605708 -2.192480 -6.469440 -0.000000 -174.193000 -6.526320 -2.580750 39.081100 -0.000007 -0.000012 0.003512 -0.018054 11.009500 40.985400 -0.000006 -0.000013 -1.863590 12.696800 -66.857400 11.754300 -0.000000 0.000003 -0.000503 0.175708 -9.449700 -2.192510 6.469440 -0.000001 176.896000 7.206870 -179.728000 -39.081100 -0.002282 -0.040193 0.007701 -0.052578 4.732720 -40.985400 0.000008 0.000006 -10.530000 7.330040 -61.658000 -11.754300 -0.000006 -0.000006 -0.010857 0.277599 -5.293460
0.000000 0.000000 0.000000 0.000000 0.000000 -0.000000 0.162612 93.673200 -0.649918 87.869300 -1.223710 -3.293800 15.735700 0.000005 -0.000001 120.677000 88.378600 -119.880000 8.984550 -0.406207 -0.000000 -4.988450 1.564140 1.663200 16.377300 -0.000001 -0.000001 -3.743380 2.102650 0.958582 6.456720 -0.000001 -0.000000 0.624998 1.652280 13.124900 12.994200 -0.242716 4.980390 -91.394100 3.840860 -70.032900 5.348090 -0.000007 -0.000001 -56.976900 -31.209200 -14.880400 24.328600 0.000019 0.000005 0.000045 29.025200 -0.000003 22.291600 -0.000001 0.000005 -13.712000 4.470900 17.075000 12.994500 -0.242716 -4.980390 88.850100 4.246150 -74.831700 -5.348130 -0.000001 -0.000004 -72.505900 20.723400 -2.823230 -24.328900 0.000322 -0.000009 -0.177565 -0.846925 -11.773900 -22.291500 -0.000108 -0.000004 3.594810 5.280180 0.621228 -2.192480 -6.469440 -0.000000 -173.891000 -7.203100 -2.844130 39.081100 -0.000007 -0.000012 -0.002235 0.011994 10.553100 40.985400 -0.000006 -0.000013 -2.748880 13.063200 -66.411700 11.754300 -0.000000 0.000003 -0.000638 0.177751 -9.366720 -2.192510 6.469440 -0.000001 177.229000 6.917930 179.766000 -39.081100 -0.002282 -0.040193 0.008079 -0.060198 4.493160 -40.985400 0.000008 0.000006 -10.330500 7.387060 -61.448600 -11.754300 -0.000006 -0.000006 -0.010911 0.277993 -5.277350
0.000000 0.000000 0.000000 0.000000 0.000000 -0.000000 -0.011069 93.658700 -0.589404 87.751000 -1.852850 -3.549210 15.735700 0.000005 -0.000001 121.254000 88.474500 -120.094000 8.984550 -0.406207 -0.000000 -5.172330 1.450270 2.389350 16.377300 -0.000001 -0.000001 -4.458500 2.443300 1.215260 6.456720 -0.000001 -0.000000 0.190724 1.918520 13.917000 12.994200 -0.242716 4.980390 -90.881200 2.321090 -69.204600 5.348090 -0.000007 -0.000001 -52.530800 -38.647300 -14.454700 24.328600 0.000019 0.000005 0.396002 24.836600 -0.942846 22.291600 -0.000001 0.000005 -5.829480 4.254430 20.486900 12.994500 -0.242716 -4.980390 88.911500 3.978850 -74.686400 -5.348130 -0.000001 -0.000004 -71.617800 18.070800 -2.551540 -24.328900 0.000322 -0.000009 -0.090319 -0.425128 -11.860000 -22.291500 -0.000108 -0.000004 4.258800 5.274470 0.777154 -2.192480 -6.469440 -0.000000 -173.715000 -7.651580 -2.938840 39.081100 -0.000007 -0.000012 -0.000692 0.003705 10.563900 40.985400 -0.000006 -0.000013 -2.774700 12.869100 -66.558800 11.754300 -0.000000 0.000003 -0.000469 0.175181 -9.471140 -2.192510 6.469440 -0.000001 177.437000 7.064820 179.584000 -39.081100 -0.002282 -0.040193 0.008118 -0.063473 4.297320 -40.985400 0.000008 0.000006 -10.313700 8.109610 -61.301700 -11.754300 -0.000006 -0.000006 -0.010830 0.277404 -5.301480
0.000000 0.000000 0.000000 0.000000 0.000000 -0.000000 -0.180194 93.625200 -0.512988 87.603500 -2.631050 -3.672140 15.735700 0.000005 -0.000001 125.442000 88.454700 -123.886000 8.984550 -0.406207 -0.000000 -5.269310 1.613250 3.189650 16.377300 -0.000001 -0.000001 -4.991550 2.777800 1.501630 6.456720 -0.000001 -0.000000 -0.340171 1.881670 14.932100 12.994200 -0.242716 4.980390 -90.352300 0.894682 -68.504200 5.348090 -0.000007 -0.000001 -47.353500 -43.694400 -13.347700 24.328600 0.000019 0.000005 1.004590 17.661700 -3.308170 22.291600 -0.000001 0.000005 2.509880 4.086770 22.978600 12.994500 -0.242716 -4.980390 88.906900 3.944550 -74.497800 -5.348130 -0.000001 -0.000004 -70.195600 15.736300 -2.210380 -24.328900 0.000322 -0.000009 -0.008049 -0.033054 -11.968200 -22.291500 -0.000108 -0.000004 5.087960 5.269400 0.914401 -2.192480 -6.469440 -0.000000 -173.535000 -7.988590 -2.933210 39.081100 -0.000007 -0.000012 0.002984 -0.015672 10.783400 40.985400 -0.000006 -0.000013 -2.609750 12.415200 -66.983100 11.754300 -0.000000 0.000003 -0.000325 0.172920 -9.562970 -2.192510 6.469440 -0.000001 177.647000 6.731320 179.509000 -39.081100 -0.002282 -0.040193 0.007839 -0.061394 4.183590 -40.985400 0.000008 0.000006 -10.159200 8.612470 -61.356200 -11.754300 -0.000006 -0.000006 -0.010949 0.278262 -5.266350
